<?xml version="1.0" encoding="UTF-8"?>
<svg width="2e3" height="483.57" version="1.1" viewBox="0 0 529.17 127.95" xmlns="http://www.w3.org/2000/svg" xmlns:cc="http://creativecommons.org/ns#" xmlns:dc="http://purl.org/dc/elements/1.1/" xmlns:rdf="http://www.w3.org/1999/02/22-rdf-syntax-ns#">
 <metadata>
  <rdf:RDF>
   <cc:Work rdf:about="">
    <dc:format>image/svg+xml</dc:format>
    <dc:type rdf:resource="http://purl.org/dc/dcmitype/StillImage"/>
    <dc:title/>
   </cc:Work>
  </rdf:RDF>
 </metadata>
 <rect x="330.68" width="198.49" height="127.95" fill="#2ab4a6"/>
 <text transform="scale(.99892 1.0011)" x="129.90021" y="91.391823" font-family="'Varela Round'" font-size="109.95px" style="line-height:1.25" xml:space="preserve"><tspan x="129.90021" y="91.391823">kriti<tspan fill="#ffffff">buy</tspan></tspan></text>
 <g stroke="#000" stroke-width="2.6458">
  <g fill="#2ab4a6">
   <path d="m11.158 45.07c-11.476-3.4115-13.054-18.904-2.4758-24.312 4.0612-2.0764 10.076-1.56 13.439 1.1538 6.5458 5.2832 7.3357 13.999 1.7697 19.526-3.6071 3.5818-8.3507 4.9351-12.732 3.6326z"/>
   <path d="m59.047 26.396c-5.0334-2.2669-7.876-6.7296-7.876-12.365 0-2.9402 0.37481-4.1215 2.1318-6.7186 4.994-7.3816 14.535-8.1282 20.421-1.598 5.3668 5.9534 4.274 14.882-2.3876 19.509-3.18 2.2085-8.7989 2.7446-12.29 1.1726z"/>
   <path d="m59.047 125.66c-5.0334-2.2669-7.876-6.7296-7.876-12.365 0-2.9402 0.37481-4.1216 2.1318-6.7186 4.994-7.3816 14.535-8.1282 20.421-1.598 5.3668 5.9534 4.274 14.882-2.3876 19.509-3.18 2.2086-8.7989 2.7447-12.29 1.1726z"/>
   <path d="m9.513 103.13c-4.7669-2.237-8.1788-7.5073-8.1901-12.651-0.0073581-2.9119 3.2231-8.4569 5.9966-10.296 4.6724-3.0988 11.379-2.6975 15.691 0.93876 5.0358 4.2466 6.0185 11.985 2.2083 17.391-3.544 5.0276-10.485 7.0684-15.706 4.618z"/>
  </g>
  <g fill="#fff" fill-opacity=".99688" stroke-linecap="round">
   <path d="m28.009 100.17 19.26 10.179"/>
   <path d="m100.59 76.103-22.845 24.097"/>
   <path d="m100.82 53.67-25.64-26.792"/>
   <path d="m30.452 26.409 17.347-7.9709"/>
   <path d="m14.292 50.121 0.32397 22.786"/>
   <path d="m23.649 48.454 30.859 49.773"/>
   <path d="m65.518 32.257-0.58189 63.1"/>
   <path d="m96.492 66.593-65.933 19.223"/>
   <path d="m52.441 29.749-28.204 46.626"/>
   <path d="m30.91 38.745 64.165 19.834"/>
  </g>
  <path d="m109.98 76.612c-5.0334-2.2669-7.876-6.7296-7.876-12.365 0-2.9402 0.37482-4.1215 2.1318-6.7186 4.994-7.3816 14.535-8.1282 20.421-1.598 5.3668 5.9534 4.274 14.882-2.3876 19.509-3.18 2.2085-8.7989 2.7446-12.29 1.1726z" fill="#2ab4a6"/>
 </g>
</svg>
