<?xml version="1.0" encoding="UTF-8" standalone="no"?>
<svg
   xmlns:dc="http://purl.org/dc/elements/1.1/"
   xmlns:cc="http://creativecommons.org/ns#"
   xmlns:rdf="http://www.w3.org/1999/02/22-rdf-syntax-ns#"
   xmlns:svg="http://www.w3.org/2000/svg"
   xmlns="http://www.w3.org/2000/svg"
   xmlns:sodipodi="http://sodipodi.sourceforge.net/DTD/sodipodi-0.dtd"
   xmlns:inkscape="http://www.inkscape.org/namespaces/inkscape"
   width="2000"
   height="624.651"
   viewBox="0 0 529.16665 165.27225"
   version="1.1"
   id="svg8"
   inkscape:version="1.0.1 (3bc2e813f5, 2020-09-07)"
   sodipodi:docname="kritibuylogo.svg">
  <defs
     id="defs2" />
  <sodipodi:namedview
     id="base"
     pagecolor="#ffffff"
     bordercolor="#666666"
     borderopacity="1.0"
     inkscape:pageopacity="0.0"
     inkscape:pageshadow="2"
     inkscape:zoom="0.35"
     inkscape:cx="863.20831"
     inkscape:cy="279.68936"
     inkscape:document-units="mm"
     inkscape:current-layer="layer1"
     inkscape:document-rotation="0"
     showgrid="false"
     units="px"
     inkscape:window-width="1920"
     inkscape:window-height="1009"
     inkscape:window-x="0"
     inkscape:window-y="34"
     inkscape:window-maximized="1" />
  <metadata
     id="metadata5">
    <rdf:RDF>
      <cc:Work
         rdf:about="">
        <dc:format>image/svg+xml</dc:format>
        <dc:type
           rdf:resource="http://purl.org/dc/dcmitype/StillImage" />
        <dc:title></dc:title>
      </cc:Work>
    </rdf:RDF>
  </metadata>
  <g
     inkscape:label="Layer 1"
     inkscape:groupmode="layer"
     id="layer1">
    <g
       aria-label="kriti"
       transform="scale(0.99712219,1.0028861)"
       id="text835"
       style="font-style:normal;font-variant:normal;font-weight:normal;font-stretch:normal;font-size:186.383px;line-height:1.25;font-family:'Varela Round';-inkscape-font-specification:'Varela Round';stroke-width:0.265;stroke-miterlimit:4;stroke-dasharray:none">
      <path
         d="m 78.84,124.69033 q 1.86383,2.42298 1.86383,5.59149 0,3.16851 -2.422979,5.40511 -2.422979,2.23659 -5.405107,2.23659 -4.473192,0 -7.641703,-3.54127 L 33.176166,90.768625 16.960845,105.49288 v 24.04341 q 0,3.54127 -2.609362,5.96425 -2.422979,2.42298 -5.9642557,2.42298 -3.5412769,0 -5.9642558,-2.42298 Q -7.4920654e-6,133.07756 -7.4920654e-6,129.53629 V 8.5737237 q 0,-3.5412769 2.4229789920654,-5.9642559 2.4229789,-2.609361904 5.9642558,-2.609361904 3.5412767,0 5.9642557,2.609361904 2.609362,2.422979 2.609362,5.9642559 V 84.804369 L 61.319998,43.80011 q 2.982128,-2.422979 6.709788,-2.422979 3.72766,0 5.405107,2.795745 1.677447,2.609362 1.677447,4.473192 0,4.100426 -3.168511,7.268937 L 45.104677,79.958411 Z"
         style="font-style:normal;font-variant:normal;font-weight:normal;font-stretch:normal;font-family:'Varela Round';-inkscape-font-specification:'Varela Round';stroke-width:0.265;stroke-miterlimit:4;stroke-dasharray:none"
         id="path1004" />
      <path
         d="M 118.88904,57.592452 Q 131.93585,40.07245 148.15118,40.07245 h 0.93191 q 3.54128,0 5.77787,2.422979 2.42298,2.422979 2.42298,6.150639 0,3.541277 -2.42298,5.777873 -2.42298,2.050213 -6.15064,2.050213 h -0.93191 q -9.31915,0 -16.77447,4.659574 -7.26894,4.473192 -12.1149,11.742129 v 56.660433 q 0,3.54127 -2.60936,5.96425 -2.42298,2.42298 -5.96425,2.42298 -3.54128,0 -5.96426,-2.42298 -2.42298,-2.42298 -2.42298,-5.96425 V 49.577983 q 0,-3.541277 2.42298,-5.964256 2.42298,-2.609362 5.96426,-2.609362 3.54127,0 5.96425,2.609362 2.60936,2.422979 2.60936,5.964256 z"
         style="font-style:normal;font-variant:normal;font-weight:normal;font-stretch:normal;font-family:'Varela Round';-inkscape-font-specification:'Varela Round';stroke-width:0.265;stroke-miterlimit:4;stroke-dasharray:none"
         id="path1006" />
      <path
         d="m 174.75152,49.577983 q 0,-3.72766 2.42298,-6.150639 2.42298,-2.422979 5.96426,-2.422979 3.72766,0 6.15063,2.422979 2.42298,2.422979 2.42298,6.150639 v 79.958307 q 0,3.54127 -2.42298,5.96425 -2.42297,2.42298 -6.15063,2.42298 -3.54128,0 -5.96426,-2.42298 -2.42298,-2.42298 -2.42298,-5.96425 z m 18.6383,-36.531067 q 0,3.914042 -2.79574,6.709787 -2.79575,2.795745 -6.70979,2.795745 h -1.1183 q -3.91404,0 -6.70979,-2.795745 -2.79574,-2.795745 -2.79574,-6.709787 v -0.745532 q 0,-3.9140433 2.79574,-6.7097882 2.79575,-2.795745 6.70979,-2.795745 h 1.1183 q 3.91404,0 6.70979,2.795745 2.79574,2.7957449 2.79574,6.7097882 z"
         style="font-style:normal;font-variant:normal;font-weight:normal;font-stretch:normal;font-family:'Varela Round';-inkscape-font-specification:'Varela Round';stroke-width:0.265;stroke-miterlimit:4;stroke-dasharray:none"
         id="path1008" />
      <path
         d="m 256.72509,123.9448 q 5.03234,0 7.08255,-0.74553 2.2366,-0.93192 4.65958,-0.93192 2.60936,0 4.65957,1.86383 2.05022,1.86383 2.05022,5.59149 0,3.72766 -3.72766,5.40511 -8.01447,3.72766 -13.79234,3.72766 -5.59149,0 -10.25107,-0.55915 -4.65957,-0.55915 -8.94638,-3.16851 -10.25107,-5.96426 -10.25107,-20.8749 V 56.474154 H 214.9753 q -3.54128,0 -3.54128,-3.541277 0,-1.677447 1.67745,-3.168511 l 25.34809,-24.788939 q 1.67744,-1.677447 3.16851,-1.677447 1.49106,0 2.42298,1.118298 1.1183,1.118298 1.1183,2.609362 v 14.91064 h 21.06127 q 3.16851,0 5.21873,2.050213 2.05021,2.050213 2.05021,5.218724 0,3.168511 -2.05021,5.218724 -2.05022,2.050213 -5.21873,2.050213 h -21.06127 v 56.287666 q 0,7.08255 4.2868,9.69191 2.42298,1.49107 7.26894,1.49107 z"
         style="font-style:normal;font-variant:normal;font-weight:normal;font-stretch:normal;font-family:'Varela Round';-inkscape-font-specification:'Varela Round';stroke-width:0.265;stroke-miterlimit:4;stroke-dasharray:none"
         id="path1010" />
      <path
         d="m 294.51716,49.577983 q 0,-3.72766 2.42298,-6.150639 2.42298,-2.422979 5.96426,-2.422979 3.72766,0 6.15064,2.422979 2.42297,2.422979 2.42297,6.150639 v 79.958307 q 0,3.54127 -2.42297,5.96425 -2.42298,2.42298 -6.15064,2.42298 -3.54128,0 -5.96426,-2.42298 -2.42298,-2.42298 -2.42298,-5.96425 z m 18.6383,-36.531067 q 0,3.914042 -2.79574,6.709787 -2.79575,2.795745 -6.70979,2.795745 h -1.1183 q -3.91404,0 -6.70979,-2.795745 -2.79574,-2.795745 -2.79574,-6.709787 v -0.745532 q 0,-3.9140433 2.79574,-6.7097882 2.79575,-2.795745 6.70979,-2.795745 h 1.1183 q 3.91404,0 6.70979,2.795745 2.79574,2.7957449 2.79574,6.7097882 z"
         style="font-style:normal;font-variant:normal;font-weight:normal;font-stretch:normal;font-family:'Varela Round';-inkscape-font-specification:'Varela Round';stroke-width:0.265;stroke-miterlimit:4;stroke-dasharray:none"
         id="path1012" />
    </g>
    <g
       id="g913"
       transform="matrix(1.3985273,0,0,1.3985273,-45.196545,-76.568838)"
       style="stroke-width:0.715039">
      <path
         style="fill:#33dac9;fill-opacity:1;stroke:none;stroke-width:0.189187"
         d="m 266.24005,122.40822 c 0,-47.947273 0.0598,-50.681633 1.17651,-53.747273 2.08941,-5.73618 6.33738,-9.65459 13.52489,-12.47559 l 3.12795,-1.22768 52.78034,-0.14828 c 58.96456,-0.16566 57.44811,-0.24875 63.8662,3.49953 4.16135,2.43031 6.9958,5.51546 8.75194,9.52597 1.29793,2.96414 1.3202,3.59968 1.14729,32.757783 -0.1739,29.32489 -0.19526,29.77003 -1.54895,32.27447 -1.90438,3.52333 -6.99103,7.93928 -11.28581,9.79774 l -3.60695,1.56081 -50.17275,0.26727 c -32.21701,0.17162 -50.38695,0.45857 -50.77129,0.80181 -0.3292,0.294 -6.53649,6.63119 -13.79397,14.08265 l -13.1954,13.5481 z"
         id="path904" />
      <text
         xml:space="preserve"
         style="font-size:70.2691px;line-height:1.25;font-family:'Varela Round';-inkscape-font-specification:'Varela Round';fill:#ffffff;fill-opacity:1;stroke-width:0.189187"
         x="262.72232"
         y="132.97049"
         id="text908"
         transform="scale(1.035201,0.96599595)"><tspan
           sodipodi:role="line"
           id="tspan906"
           x="262.72232"
           y="132.97049"
           style="fill:#ffffff;fill-opacity:1;stroke-width:0.189187">buy</tspan></text>
    </g>
  </g>
</svg>
