<?xml version="1.0" standalone="no"?>
<!DOCTYPE svg PUBLIC "-//W3C//DTD SVG 20010904//EN"
 "http://www.w3.org/TR/2001/REC-SVG-20010904/DTD/svg10.dtd">
<svg version="1.0" xmlns="http://www.w3.org/2000/svg"
 width="764.000000pt" height="764.000000pt" viewBox="0 0 764.000000 764.000000"
 preserveAspectRatio="xMidYMid meet">
<metadata>
Created by potrace 1.11, written by Peter Selinger 2001-2013
</metadata>
<g transform="translate(0.000000,764.000000) scale(0.100000,-0.100000)"
fill="#000000" stroke="none">
<path d="M1340 6930 l-415 -5 -130 -53 c-243 -100 -376 -182 -512 -319 -50
-51 -94 -102 -98 -113 -3 -11 -11 -20 -16 -20 -5 0 -9 -6 -9 -14 0 -8 -6 -21
-13 -28 -17 -17 -70 -129 -91 -194 -22 -68 -29 -115 -42 -304 -3 -47 -8 -1234
-11 -2638 l-5 -2554 62 64 c175 180 722 742 1093 1121 246 251 281 284 310
285 17 0 95 3 172 7 269 11 1364 23 2662 29 386 2 706 7 712 10 6 4 11 3 11
-1 0 -9 68 -9 76 0 3 2 21 1 40 -3 19 -4 36 -4 39 1 3 4 16 4 29 -1 12 -4 29
-5 36 0 7 5 23 4 36 0 12 -5 25 -6 28 -3 9 10 56 10 56 0 0 -4 5 -5 11 -1 16
10 249 11 249 1 0 -5 5 -5 12 -1 6 4 264 8 572 9 l561 2 100 44 c122 52 247
116 282 144 7 6 18 15 25 20 7 6 29 22 48 35 19 14 46 34 59 45 45 36 211 208
211 217 0 5 9 19 21 31 18 20 69 117 83 160 30 91 39 593 40 2052 1 1099 0
1132 -38 1240 -11 31 -89 189 -96 195 -4 3 -13 16 -19 28 -36 69 -186 214
-297 288 -78 52 -221 129 -289 155 -29 12 -93 27 -145 34 -25 3 -58 8 -74 10
-16 3 -68 7 -115 10 -47 4 -122 9 -166 13 -97 7 -4473 9 -5055 2z"/>
</g>
</svg>
