<?xml version="1.0" standalone="no"?>
<!DOCTYPE svg PUBLIC "-//W3C//DTD SVG 20010904//EN"
 "http://www.w3.org/TR/2001/REC-SVG-20010904/DTD/svg10.dtd">
<svg version="1.0" xmlns="http://www.w3.org/2000/svg"
 width="479.000000pt" height="479.000000pt" viewBox="0 0 479.000000 479.000000"
 preserveAspectRatio="xMidYMid meet">
<metadata>
Created by potrace 1.11, written by Peter Selinger 2001-2013
</metadata>
<g transform="translate(0.000000,479.000000) scale(0.100000,-0.100000)"
fill="#000000" stroke="none">
<path d="M1195 4779 c-307 -40 -591 -183 -808 -408 -190 -197 -309 -426 -364
-696 -17 -84 -18 -170 -18 -1280 0 -1103 1 -1196 18 -1278 57 -279 188 -526
384 -719 196 -193 434 -319 710 -375 82 -17 175 -18 1278 -18 1110 0 1196 1
1280 18 557 113 978 534 1092 1094 17 82 18 175 18 1278 0 1103 -1 1196 -18
1278 -58 285 -192 533 -395 729 -192 185 -406 300 -670 360 -97 22 -97 22
-1267 24 -649 1 -1201 -2 -1240 -7z m970 -544 c232 -61 383 -285 348 -515 -24
-150 -109 -267 -243 -334 -141 -69 -260 -71 -393 -8 -118 56 -195 147 -242
285 -29 87 -31 145 -9 231 66 257 298 403 539 341z m824 -886 c212 -116 396
-222 409 -235 26 -30 28 -51 6 -82 -28 -40 -59 -45 -112 -18 -167 84 -750 411
-764 428 -10 11 -18 31 -18 45 0 30 42 73 71 73 12 0 196 -95 408 -211z
m-1330 175 c39 -50 28 -72 -94 -180 -223 -198 -244 -214 -275 -214 -41 0 -70
31 -70 74 0 33 12 46 176 190 152 134 181 156 209 156 24 0 39 -7 54 -26z
m-739 -235 c38 -6 93 -25 134 -47 281 -147 340 -491 126 -725 -128 -140 -335
-177 -515 -91 -179 84 -290 300 -255 494 34 189 190 342 375 369 33 5 62 9 65
10 3 0 34 -4 70 -10z m3099 -4 c245 -58 404 -289 362 -524 -23 -131 -91 -236
-195 -303 -268 -173 -596 -44 -690 271 -68 231 106 513 346 560 66 13 107 12
177 -4z m-2104 -50 c14 -13 25 -31 25 -40 0 -9 -13 -75 -30 -147 -16 -71 -30
-136 -30 -144 0 -12 36 -14 221 -14 200 0 221 2 215 16 -4 9 -23 70 -43 136
-35 111 -36 122 -22 146 35 63 113 50 137 -23 8 -22 30 -92 50 -155 l37 -114
392 3 c386 3 391 3 412 -18 22 -22 27 -61 11 -91 -19 -36 -63 -40 -409 -40
-185 0 -341 -4 -347 -8 -8 -5 1 -46 28 -132 22 -69 60 -189 85 -268 28 -92 49
-142 56 -139 7 3 149 97 316 211 323 219 346 230 386 186 21 -24 24 -72 5 -95
-7 -9 -160 -115 -339 -237 -179 -121 -327 -221 -328 -222 -2 -1 29 -103 67
-226 39 -124 70 -233 70 -243 0 -26 -45 -67 -75 -67 -48 0 -67 35 -130 243
-33 108 -63 197 -67 197 -11 0 -348 -231 -348 -239 0 -4 63 -61 140 -127 82
-70 143 -129 147 -143 14 -56 -43 -115 -91 -93 -12 5 -90 69 -173 141 -83 72
-156 131 -161 131 -5 0 -58 -34 -118 -75 -60 -41 -119 -75 -132 -75 -32 0 -72
43 -72 78 0 33 15 48 123 122 42 30 76 57 75 60 -2 4 -75 69 -163 145 l-159
137 -33 -143 c-27 -122 -36 -148 -59 -167 -31 -27 -69 -23 -96 10 -24 28 -23
39 21 233 28 124 36 174 28 183 -6 8 -68 63 -139 124 -120 103 -128 112 -128
146 0 46 24 72 66 72 27 0 51 -15 125 -77 50 -43 99 -84 108 -91 16 -11 21 4
64 195 26 115 47 214 47 221 0 9 -31 12 -119 12 -141 0 -165 11 -165 75 0 66
22 75 185 75 136 0 139 0 144 23 3 12 20 89 39 172 27 116 39 154 56 167 31
25 67 22 95 -7z m1725 -865 c35 -19 40 -62 16 -121 -56 -134 -329 -706 -344
-721 -43 -42 -122 -12 -122 47 0 31 334 751 363 783 22 23 56 28 87 12z
m-2556 -72 c20 -18 47 -84 111 -271 47 -137 85 -255 85 -263 0 -8 -11 -26 -25
-39 -29 -30 -75 -33 -99 -6 -19 21 -186 490 -186 523 0 29 18 58 43 68 34 14
44 12 71 -12z m398 -659 c135 -29 253 -124 315 -254 63 -133 57 -301 -14 -424
-59 -101 -155 -178 -264 -212 -106 -33 -225 -19 -333 39 -73 38 -177 145 -212
217 -51 106 -44 258 17 395 81 178 292 281 491 239z m1593 -194 c132 -35 238
-123 301 -251 35 -70 39 -86 42 -173 3 -79 0 -107 -18 -160 -44 -130 -114
-210 -234 -267 -123 -58 -221 -65 -341 -24 -73 25 -123 59 -182 124 -86 93
-142 245 -127 345 9 59 51 177 77 216 112 166 295 238 482 190z m-886 -374
c266 -43 284 -50 284 -110 0 -43 -28 -71 -72 -71 -20 0 -144 18 -276 39 -226
37 -241 41 -263 66 -39 46 -8 115 52 115 17 0 141 -18 275 -39z"/>
<path d="M1967 4086 c-95 -35 -173 -125 -197 -228 -32 -132 41 -283 168 -345
146 -72 337 -3 406 146 32 71 30 199 -6 267 -32 61 -94 119 -157 147 -58 26
-163 32 -214 13z"/>
<path d="M820 3143 c-108 -19 -191 -77 -238 -168 -35 -66 -37 -185 -5 -256 28
-63 87 -125 147 -157 44 -23 63 -27 141 -27 80 0 95 3 136 27 97 57 150 145
157 259 4 67 1 84 -21 132 -56 122 -202 210 -317 190z"/>
<path d="M3847 3136 c-125 -35 -226 -185 -215 -320 9 -105 81 -211 177 -258
36 -18 63 -23 126 -23 73 0 86 3 145 36 111 61 168 167 157 291 -17 188 -211
324 -390 274z"/>
<path d="M1835 2718 c-46 -199 -115 -515 -115 -529 0 -23 393 -364 418 -363
22 1 422 273 422 288 0 6 -44 149 -97 318 l-96 308 -263 0 -264 0 -5 -22z"/>
<path d="M1310 1487 c-127 -36 -198 -124 -219 -271 -7 -52 -6 -78 5 -116 19
-65 95 -147 171 -185 76 -39 184 -42 249 -8 93 50 144 114 170 213 25 97 -4
201 -77 284 -65 75 -199 111 -299 83z"/>
<path d="M2880 1301 c-107 -35 -182 -125 -210 -253 -12 -52 -11 -63 9 -125 39
-117 109 -187 220 -220 65 -18 124 -12 195 20 74 35 111 70 147 142 99 201
-40 431 -266 441 -38 2 -81 0 -95 -5z"/>
</g>
</svg>
