<svg version="1" xmlns="http://www.w3.org/2000/svg" width="645.333" height="645.333" viewBox="0 0 484.000000 484.000000"><path d="M225.4 5c-12.2 4-22 11.3-29.8 22.4-7.3 10.6-9.5 18-8.9 30.6.7 15.2 5.4 26.2 15.8 36.5 10.9 10.9 21.6 15.5 36 15.5 19.5-.1 35.5-8.1 45.3-22.9 6.9-10.3 9.3-18 9.4-30.1.1-9.6-1.2-14.9-5.9-24.3-3.9-7.9-14.2-18.8-21.5-22.9C253.6 3 237.6 1.1 225.4 5zM169.2 71c-4.6 2.2-8.5 4-8.7 4-.2 0-5.4 2.4-11.6 5.3-6.3 3-17.6 8.2-25.2 11.7-11 5.1-13.9 6.8-14.3 8.7-.4 1.6 0 3.1 1.1 4.3 2.1 2.4 3.3 2.5 7.1.6 1.6-.8 13.3-6.1 25.9-11.9C180.3 76.9 181.8 76.2 183 74c1.4-2.6-1-7-3.8-7-.9 0-5.5 1.8-10 4zM39.5 72.9c-25.7 7.2-41.7 32.3-37.7 59.2 2 14 10.5 28.3 21.3 35.7 23.1 16.1 49.3 13.7 69.4-6.3 13.2-13.1 17.7-28.5 14.2-48.5-2-11.8-14.8-29-26.4-35.5-11-6.1-28.4-8.1-40.8-4.6zM278.4 99.8c-.6.4-1.4 1.7-1.8 2.9-.8 2.4 1 4.5 23.5 27.8 5.4 5.5 11.6 12 13.9 14.5 4.2 4.5 31.2 32.7 51.1 53.3 9.5 9.9 10.8 10.9 13.2 10.3 2.9-.7 4.5-4.4 3-7-.4-.8-4.8-5.7-9.8-10.9-4.9-5.1-17.2-17.9-27.1-28.3-10-10.4-20.1-21-22.5-23.5-36.1-38.3-39.8-41.6-43.5-39.1zM193.8 110.2c-1.3 1.2-7.8 10.4-7.8 11.2 0 .2-1.8 3.3-3.9 6.7-2.2 3.5-6.1 10-8.7 14.4-9.3 15.8-9 15.5-12.1 14.5-1.6-.4-12.4-3.8-24.2-7.5-17.9-5.5-21.9-6.5-23.8-5.6-1.9.9-2.4 1.8-2.1 4.3.3 3.5 2.2 4.5 15.8 8.6 23.5 7.1 31 9.7 31 10.4 0 .4-5.9 10.6-13.1 22.5-7.3 12-15.4 25.5-18.1 30-2.8 4.6-5.1 8.3-5.3 8.3-.1 0-6.7-10.5-14.6-23.4-7.9-12.9-15.3-23.8-16.4-24.3-3-1.4-5.2-.5-6.3 2.5-.8 2.4.3 4.5 9.4 19.2 5.6 9.1 12.9 20.9 16.2 26.2l6 9.7-14.9 24.6C92.7 276 86 287.9 86 289c0 2.4 2.6 5 5 5 2.3 0 4.2-2.7 19-27.3 7.1-11.8 11.6-18.5 12.2-17.9 2.4 2.4 35.5 56.8 35 57.4-.4.4-7.9 2.8-16.7 5.3-27.9 8.1-29.5 8.6-30.6 10.7-1.4 2.6 1.3 6.8 4.3 6.8 1.2 0 7.4-1.6 13.7-3.5 28.2-8.4 35.6-10.4 36.1-9.6 1.6 2.5 8.4 13.2 21.4 34.3 8.1 13.1 15.2 24 15.7 24.3.5.4 1.8.8 2.9 1 2.4.5 5.5-3.7 4.6-6.1-.3-.8-8.3-13.9-17.6-29.1-9.4-15.1-16.9-27.8-16.6-28 .3-.3 5.8-2.1 12.3-4 16.9-4.9 48.5-14 50.3-14.4 1.3-.4 1.5 3.8 1.2 34-.2 31.9-.1 34.4 1.5 35.7 2.5 1.9 4.7 1.7 6.6-.4 1.4-1.6 1.7-6.2 2-37 .2-19.3.6-35.4.8-35.7.4-.4 46.4-13.9 104.3-30.7 8.8-2.6 11-3.6 11.9-5.6 1.3-2.7.2-5.1-2.8-6.2-1.2-.4-7.8 1-17 3.7-8.2 2.4-23.5 6.9-34 10-10.4 3-20.3 5.9-22 6.3-1.6.5-9.3 2.7-17 5-7.7 2.3-14.7 4.3-15.5 4.5-.8.2-3.1.9-5 1.4-1.9.6-3.5 1.1-3.5 1.1s0-2.4.2-5.3c.1-2.8.2-22 .4-42.5.2-37.3.2-37.4 2.3-36.9 2 .4 51.5 15.7 86.3 26.6 16.3 5.1 18.9 5.7 20.9 4.3 1.9-1.2 2.5-4.7 1.1-6.6-1.1-1.5-19.8-7.7-55.7-18.5-5.2-1.6-19.6-6-32-9.9l-22.5-7 .3-30.5c.3-32.6.1-34.7-4.3-34.7-5 0-5.3 1.4-5.5 23.3-.3 33.2-.4 38.7-.7 38.7-.2 0-10.6-3.2-23.1-7.1-12.5-3.9-26.9-8.3-32-9.9-5.2-1.6-9.5-3-9.7-3.2-.2-.2 5.7-10.3 13.1-22.6C195 126 201 115.1 201 114c0-1-1-2.6-2.2-3.4-2.7-1.9-3-1.9-5-.4zm12.7 71.1l33 10.3-.2 19.4c-.1 10.7-.2 31.3-.3 45.7 0 14.5-.3 26.3-.5 26.3s-15.8 4.5-34.6 10c-18.9 5.5-34.8 9.9-35.5 9.6-1.1-.4-37.4-58.2-39.6-63.1-1-2.1.7-5.2 16.4-31.2 9.6-15.8 18.7-31 20.3-33.6 2.4-4.2 3.1-4.7 5.4-4.2 1.4.3 17.5 5.2 35.6 10.8zM49.4 188.2c-.7 2.2-.7 18.1.1 68.6.3 19.4.5 21.5 2.1 22.7 2.5 1.9 4.9 1.9 6.5-.2 1.1-1.3 1.3-7.7 1.1-34.2-.6-51.6-.7-55.8-2.2-57.6-2-2.4-6.7-1.9-7.6.7zM415.8 193c-15.1 4.6-28.2 16.8-35.5 32.7-1.9 4.1-2.7 7.8-3 14.2-1.3 23.8 9.8 43.3 30.5 53.3 8.7 4.2 8.7 4.3 20.2 4.3 12.8 0 14.9-.3 23.3-3.5 13.1-5 24.6-17.3 29.9-32.1 1.8-5.2 2.2-8.5 2.2-17.4 0-9.5-.4-11.9-2.7-17.8-6.9-17.6-21-30.2-39.1-34.6-6.6-1.6-19-1.2-25.8.9zM359.3 298.7c-8.3 8.7-16.7 17.6-18.8 19.8-2 2.2-6.9 7.4-10.8 11.5-46.4 48.8-43.7 45.8-43.7 48.2 0 2.2 2.7 4.8 5 4.8 1.1 0 2.9-1.1 4.2-2.3 2.9-3 30.3-31.8 35.3-37.2 6.4-6.8 33.6-35.4 42.2-44.4 8.3-8.7 9.9-12.1 7.1-14.9-3-3-5.5-1.2-20.5 14.5z"/><path d="M45.8 291.1c-19.5 3-33.6 15.4-42.5 37.4-2.9 7.2-3.2 8.8-2.8 16 .7 13.4 5.8 25.4 15.3 35.6 10.8 11.7 22 17 36.6 17.4 28.2.8 52.6-20.6 55.2-48.3 2.3-25-12.6-48.4-35.6-55.6-8.4-2.7-18.8-3.7-26.2-2.5zM101.6 374.6c-1.7 1.6-2 4.2-.8 6 .4.6 4.3 3.1 8.7 5.4 4.4 2.4 10.7 5.7 14 7.5 28.6 15.3 52.4 27.5 53.7 27.5.8 0 2.3-.9 3.3-2 3.2-3.6.8-6.1-12.2-13-6.5-3.5-14.5-7.8-17.8-9.5-3.3-1.8-10.7-5.7-16.5-8.7-32-16.9-29.7-16-32.4-13.2zM231 375.2c-16.5 2.4-35.6 18.8-42.2 36.1-2 5.3-2.7 16.6-1.5 25.3 2.3 16.9 13.5 32.3 28.9 39.8 8 3.9 11.1 4.7 21 5.1 15.5.7 29.7-4.6 39.8-14.7 10.9-11 16.2-23.5 16.2-38.3.1-32.7-29.6-58.2-62.2-53.3z"/></svg>